<svg version="1.0" xmlns="http://www.w3.org/2000/svg"
 width="876.000000pt" height="952.000000pt" viewBox="0 0 876.000000 952.000000"
 preserveAspectRatio="xMidYMid meet">

<g transform="translate(0.000000,952.000000) scale(0.100000,-0.100000)"
fill="#151619" stroke="#151619">
<path d="M7090 8685 c-8 -2 -55 -9 -105 -15 -49 -7 -135 -27 -191 -46 l-100
-33 -64 26 c-185 74 -406 65 -684 -28 -120 -40 -215 -91 -308 -165 -42 -34
-80 -58 -85 -54 -28 27 -163 83 -230 96 -66 13 -99 13 -215 3 -133 -11 -141
-11 -288 16 -141 26 -157 27 -238 16 -187 -26 -310 -76 -413 -169 -56 -51
-159 -194 -210 -292 -29 -57 -32 -142 -5 -183 43 -64 133 -77 190 -27 18 17
37 43 41 58 10 42 102 177 151 222 103 95 265 122 470 80 84 -18 129 -20 299
-18 l200 3 51 -29 c55 -30 124 -83 124 -94 0 -4 -69 -8 -152 -8 -157 -1 -284
-17 -433 -55 -172 -44 -489 -161 -528 -197 -67 -59 -52 -168 28 -206 50 -24
76 -20 235 34 300 101 426 124 695 125 227 0 249 -3 469 -76 145 -48 265 -81
336 -93 103 -16 364 -37 580 -46 365 -14 434 -36 598 -195 189 -182 245 -315
297 -714 20 -158 50 -272 96 -368 41 -87 89 -141 232 -267 85 -74 111 -110
145 -196 65 -166 71 -329 19 -525 -16 -59 -21 -110 -21 -195 0 -106 3 -123 36
-220 39 -113 60 -245 62 -388 1 -124 -25 -175 -161 -310 -89 -89 -116 -110
-188 -143 l-84 -40 -41 26 c-44 28 -136 55 -185 55 -25 0 -75 -10 -192 -37
-22 -5 -23 -3 -23 71 0 42 -11 186 -24 319 -35 347 -40 417 -28 417 5 0 25 -6
44 -14 18 -8 108 -27 198 -42 l165 -28 47 21 c109 49 116 194 12 255 -16 9
-90 27 -164 38 -165 27 -232 50 -267 94 -14 18 -47 83 -73 143 -26 61 -67 143
-91 184 -60 103 -210 252 -314 311 -44 25 -92 59 -107 75 -30 31 -114 210
-182 386 -98 253 -204 408 -311 453 -71 30 -176 10 -208 -39 -50 -78 -8 -182
81 -202 20 -4 39 -22 64 -61 38 -56 56 -100 134 -319 119 -336 194 -445 367
-537 91 -49 175 -132 230 -229 46 -82 46 -83 27 -104 -48 -51 -51 -111 -11
-187 31 -57 51 -166 66 -353 3 -44 15 -163 25 -265 10 -102 22 -243 25 -315 4
-71 16 -247 27 -390 26 -340 33 -638 19 -793 -11 -123 -73 -514 -111 -709 -71
-358 -333 -765 -638 -991 -307 -227 -784 -387 -1292 -432 -143 -13 -581 0
-840 26 -566 55 -1217 286 -1586 562 -168 126 -380 356 -517 560 -98 146 -136
213 -199 355 -197 440 -269 845 -255 1421 7 282 59 706 133 1086 l36 185 48
51 c133 141 232 366 325 740 24 97 54 197 66 223 14 29 64 87 134 156 62 61
126 131 143 156 32 48 76 145 127 279 25 66 39 85 114 160 100 99 175 141 263
148 46 3 64 0 91 -17 105 -65 229 24 196 141 -14 53 -84 111 -157 132 -198 55
-432 -31 -632 -233 -82 -83 -123 -152 -184 -313 -42 -110 -98 -190 -178 -258
-145 -121 -196 -219 -272 -522 -96 -378 -171 -533 -316 -651 -91 -74 -112
-108 -107 -168 2 -27 13 -60 27 -79 l23 -33 -31 -131 c-56 -236 -132 -698
-132 -802 0 -33 -1 -34 -44 -34 -42 0 -44 1 -60 45 -21 55 -88 115 -165 150
-114 52 -105 40 -113 140 -14 174 -29 267 -54 348 -48 150 -119 266 -205 332
-88 67 -99 81 -99 121 0 112 64 245 212 442 124 165 177 255 217 376 55 166
57 337 7 509 -14 48 -26 102 -26 120 0 71 110 191 248 272 101 59 387 182 442
190 34 5 56 2 90 -14 64 -29 131 -28 169 4 55 47 63 124 19 181 -32 39 -148
91 -224 99 -35 4 -64 10 -64 12 0 3 35 40 78 82 59 59 87 97 121 164 82 160
109 179 321 226 249 54 328 94 485 244 121 114 143 124 304 138 247 22 445
-29 562 -143 68 -66 110 -79 166 -51 20 10 46 31 57 46 89 122 -124 331 -409
402 -273 67 -537 53 -708 -37 -35 -19 -102 -71 -157 -124 -147 -139 -157 -145
-389 -195 -248 -53 -373 -141 -470 -329 -32 -62 -67 -109 -128 -173 -103 -107
-155 -206 -159 -301 l-3 -59 -84 -33 c-105 -40 -156 -66 -232 -117 -182 -123
-295 -270 -325 -423 -13 -65 -3 -134 39 -289 37 -131 22 -264 -43 -394 -19
-38 -75 -122 -124 -187 -173 -232 -209 -297 -258 -461 -34 -116 -37 -234 -6
-313 27 -69 66 -116 151 -184 118 -94 161 -205 181 -461 12 -162 21 -203 61
-265 37 -59 78 -90 182 -139 113 -54 118 -61 77 -108 -40 -45 -84 -137 -105
-218 -57 -223 43 -570 218 -753 79 -82 144 -113 253 -120 l81 -5 53 -161 c58
-180 170 -444 232 -551 186 -318 455 -631 698 -814 345 -259 819 -455 1395
-576 326 -68 974 -106 1286 -75 373 38 773 147 1074 295 428 210 710 498 930
950 74 152 115 272 144 416 18 92 105 625 113 689 3 23 7 24 50 21 26 -1 73 5
104 14 128 37 193 112 273 312 65 164 82 241 88 393 l5 135 82 35 c97 42 170
95 285 209 102 101 173 204 210 304 24 66 26 85 25 217 0 176 -25 344 -66 455
-36 99 -39 177 -9 295 34 136 47 296 33 394 -41 282 -126 452 -301 600 -163
139 -188 184 -217 401 -24 171 -73 417 -98 492 -54 159 -122 263 -278 424
-100 104 -194 171 -299 212 -149 59 -246 74 -579 87 -380 15 -529 36 -739 108
l-84 28 -17 60 c-9 32 -26 78 -38 101 l-22 42 43 36 c48 42 157 96 237 119 74
21 216 46 264 46 l39 0 -52 -55 c-74 -78 -104 -149 -99 -230 5 -84 40 -137
111 -171 61 -28 106 -30 191 -8 115 29 204 80 287 163 84 84 109 136 109 226
0 51 0 52 38 63 99 30 278 42 472 32 78 -4 102 -1 132 14 101 49 103 184 4
246 -19 11 -65 24 -107 30 -67 9 -293 12 -329 5z m462 -4937 c9 -16 13 -64 12
-148 0 -118 -2 -131 -38 -235 -21 -60 -50 -132 -64 -160 -24 -44 -31 -50 -63
-53 l-36 -3 -6 113 c-4 62 -12 178 -19 257 -9 112 -9 146 1 149 6 2 20 21 31
43 22 42 53 57 127 58 34 1 45 -3 55 -21z m-6242 -176 c0 -98 28 -508 39 -565
9 -53 6 -58 -26 -46 -50 18 -129 163 -164 298 -25 98 -25 195 1 264 22 58 37
76 85 101 57 30 65 24 65 -52z"/>
<path d="M2790 7697 c-201 -56 -322 -117 -480 -244 -136 -108 -197 -194 -265
-369 -55 -142 -105 -239 -152 -294 -20 -23 -88 -78 -152 -123 -158 -112 -242
-185 -296 -262 -89 -124 -123 -249 -106 -386 12 -103 5 -121 -101 -254 -190
-239 -276 -423 -298 -636 -25 -245 -8 -329 74 -368 52 -26 69 -26 124 -1 64
29 78 70 91 260 14 219 55 323 204 516 128 168 167 228 188 294 18 57 20 79
14 181 -6 104 -5 121 13 163 31 68 108 143 251 245 218 154 302 264 402 521
55 141 76 176 153 248 178 166 365 242 595 242 192 0 441 -37 529 -77 67 -32
112 -25 159 22 28 28 33 40 33 80 0 97 -59 147 -226 189 -173 44 -339 67 -509
72 -146 4 -168 2 -245 -19z"/>
<path d="M4930 7479 c-152 -32 -269 -84 -460 -207 -137 -87 -170 -127 -170
-202 0 -32 7 -48 34 -78 32 -34 39 -37 88 -37 48 0 62 6 141 59 234 154 416
209 622 187 131 -15 154 -24 267 -109 160 -119 293 -181 470 -218 67 -14 137
-18 358 -18 374 -1 394 -9 528 -210 75 -112 85 -141 102 -294 30 -273 99 -397
271 -487 195 -101 235 -147 323 -375 61 -158 131 -230 224 -230 79 0 148 77
138 154 -2 22 -20 61 -40 90 -20 29 -44 78 -55 109 -29 85 -96 216 -139 272
-54 71 -154 152 -268 215 -125 70 -138 91 -160 271 -26 220 -56 302 -168 461
-135 194 -232 264 -418 303 -50 11 -139 15 -318 15 -272 0 -349 9 -467 56 -66
26 -99 46 -282 174 -47 32 -108 66 -137 75 -151 47 -329 56 -484 24z"/>
<path d="M3900 6864 c-53 -23 -218 -197 -292 -309 -75 -113 -123 -223 -146
-336 -14 -65 -14 -89 -4 -148 10 -63 54 -175 71 -186 4 -2 0 -55 -8 -117 -18
-144 -7 -240 43 -344 61 -129 136 -191 266 -220 63 -15 84 -15 154 -5 100 16
211 50 270 85 46 27 86 90 86 134 0 36 -25 87 -55 110 -49 39 -87 38 -205 -2
-214 -72 -270 -41 -270 146 0 46 4 88 8 94 4 6 37 18 73 26 95 24 155 55 214
112 59 58 85 120 85 202 0 67 -45 137 -110 172 -39 20 -55 23 -121 20 -61 -4
-86 -11 -134 -36 -32 -18 -60 -30 -62 -28 -8 8 41 113 84 180 73 113 142 195
183 216 74 38 104 106 76 173 -29 69 -123 97 -206 61z"/>
<path d="M4380 6792 c-68 -34 -97 -110 -65 -172 25 -49 61 -70 122 -70 67 0
154 -42 225 -108 41 -38 88 -105 88 -125 0 -3 -19 -8 -43 -11 -99 -15 -228
-100 -267 -176 -40 -79 -35 -145 18 -223 63 -94 199 -121 312 -63 30 15 74 43
97 62 23 19 44 34 47 34 11 0 26 -79 26 -141 0 -91 -29 -179 -108 -329 -138
-263 -135 -256 -128 -292 10 -56 40 -94 90 -113 90 -34 147 -2 219 123 170
294 237 495 222 661 -14 148 -67 274 -146 345 -31 29 -37 41 -42 94 -23 219
-202 420 -444 501 -78 26 -175 28 -223 3z"/>
<path d="M5653 6783 c-34 -6 -81 -59 -89 -98 -7 -40 9 -96 36 -120 28 -25 25
-49 -17 -199 -34 -119 -38 -142 -38 -256 0 -121 1 -127 31 -180 39 -70 90
-106 179 -126 134 -31 145 -35 172 -58 l28 -24 5 -189 c5 -172 7 -192 29 -233
46 -88 102 -132 212 -163 65 -19 67 -21 148 -154 34 -56 76 -114 92 -127 100
-84 239 -31 239 92 0 49 -18 87 -103 222 -94 150 -151 201 -264 238 l-58 19
-1 149 c-1 177 -13 235 -66 314 -64 96 -160 155 -296 183 l-67 14 2 63 c2 34
17 121 34 194 48 201 34 300 -53 383 -33 32 -96 64 -120 62 -7 -1 -23 -4 -35
-6z"/>
<path d="M3127 6656 c-64 -23 -147 -85 -232 -170 -153 -154 -228 -297 -229
-441 -1 -103 21 -153 103 -234 68 -67 83 -102 56 -131 -9 -10 -65 -45 -124
-77 -127 -69 -213 -149 -254 -236 -51 -109 -46 -175 20 -274 24 -35 33 -57 29
-71 -4 -12 -51 -59 -105 -106 -139 -122 -173 -176 -157 -260 14 -74 102 -127
176 -106 25 7 80 54 187 157 119 116 158 160 177 203 43 92 31 210 -30 300
-13 19 -24 38 -24 43 0 17 58 61 130 97 167 84 258 179 281 293 23 111 -21
234 -123 342 -59 63 -59 64 -49 102 19 69 72 147 161 236 85 85 88 87 135 87
40 0 52 5 80 33 61 61 53 150 -18 201 -35 26 -136 32 -190 12z"/>
<path d="M5545 4543 c-93 -7 -192 -26 -227 -44 -96 -49 -114 -159 -37 -224 33
-27 86 -33 147 -16 17 5 32 9 32 8 0 -1 -9 -27 -21 -57 -50 -130 -33 -260 45
-347 113 -125 268 -146 408 -53 96 64 157 205 144 333 -6 57 -5 58 17 51 12
-3 52 -22 89 -40 77 -39 126 -43 177 -16 82 44 95 170 25 234 -29 26 -152 84
-225 106 -167 52 -408 79 -574 65z"/>
<path d="M3466 4529 c-299 -29 -656 -177 -809 -335 -64 -67 -71 -149 -16 -204
58 -58 119 -52 204 20 56 47 205 130 234 130 10 0 12 -11 8 -40 -7 -52 16
-161 44 -208 57 -95 127 -142 225 -150 143 -11 281 78 336 217 27 70 29 194 4
260 -16 42 -15 45 3 65 66 74 50 191 -32 229 -46 22 -100 26 -201 16z"/>
<path d="M4560 3412 c-47 -23 -77 -72 -86 -139 -12 -96 2 -392 21 -444 37
-105 126 -166 225 -157 61 6 104 42 122 100 15 52 -11 122 -57 149 -31 18 -32
23 -39 96 -3 42 -6 130 -6 197 0 139 -14 176 -75 202 -45 18 -63 18 -105 -4z"/>
<path d="M5078 1754 c-37 -13 -167 -40 -290 -60 -195 -33 -246 -37 -403 -38
l-180 -1 -98 49 c-95 47 -100 48 -139 37 -108 -33 -129 -154 -40 -232 52 -46
186 -106 279 -125 207 -43 820 23 1017 110 97 43 134 118 97 201 -38 86 -113
104 -243 59z"/>
</g>
</svg>